# xmcd
# 
# Track frame offsets:
#     150
#     9630
#     27778
#     47108
#     65390
#     85478
#     104060
#     122220
#     141198
#     150765
#     169755
#     189160
#     209978
#     229020
# 
# Disc length: 3601
# 
# Revision: 2
# Processed by: cddbd v1.5.2PL0 Copyright (c) Steve Scherf et al.
# Submitted via: BonkEnc v1.0.8
# 
DISCID=be0e0f0e
DTITLE=Dragon Ash - INDEPENDIENTE
DYEAR=2007
DGENRE=JPop
TTITLE0=Independiente - intro - 
TTITLE1=Develop the music
TTITLE2=stir
TTITLE3=Fly
TTITLE4=Ivory
TTITLE5=Libertad de fiesta
TTITLE6=EI Alma feat.SHINJI TAKEDA
TTITLE7=Rainy
TTITLE8=Step show - Interlude - 
TTITLE9=Samba'n 'bass
TTITLE10=Luz del sol feat.OHKURA from KETSUMEISHI
TTITLE11=few lights till night
TTITLE12=Beautiful
TTITLE13=YUME DE AETARA
EXTD=YEAR: 2007
EXTT0=
EXTT1=
EXTT2=
EXTT3=
EXTT4=
EXTT5=
EXTT6=
EXTT7=
EXTT8=
EXTT9=
EXTT10=
EXTT11=
EXTT12=
EXTT13=
PLAYORDER=
